/* XPM */
static char *_a3b3372465f480dec14663025f98c42QXHy5cFbgtsVoHQp[] = {
/* columns rows colors chars-per-pixel */
"64 64 2 1 ",
"  c None",
". c #00FF7B",
/* pixels */
"                                                                ",
"                                                                ",
"                                                                ",
"                                                                ",
"                                                                ",
"                                                                ",
"                                                                ",
"                                                                ",
"                                                                ",
"                                                                ",
"                                                                ",
"                                                                ",
"                                                                ",
"                                                                ",
"                                                                ",
"                                                                ",
"                                                                ",
"                                                                ",
"                                                                ",
"                                                                ",
"                           ......                               ",
"                         ..........                             ",
"                       .............                            ",
"                      ................                          ",
"                     ..................                         ",
"                    ....................                        ",
"                    ....................                        ",
"                   ......................                       ",
"                   ......................                       ",
"                  ........................                      ",
"                  ........................                      ",
"                  ........................                      ",
"                  ........................                      ",
"                  ........................                      ",
"                  ........................                      ",
"                  ........................                      ",
"                   ......................                       ",
"                   ......................                       ",
"                    ....................                        ",
"                    ....................                        ",
"                     ..................                         ",
"                      ................                          ",
"                        ............                            ",
"                         ..........                             ",
"                           ......                               ",
"                                                                ",
"                                                                ",
"                                                                ",
"                                                                ",
"                                                                ",
"                                                                ",
"                                                                ",
"                                                                ",
"                                                                ",
"                                                                ",
"                                                                ",
"                                                                ",
"                                                                ",
"                                                                ",
"                                                                ",
"                                                                ",
"                                                                ",
"                                                                ",
"                                                                "
};
